<svg width="14" height="14" viewBox="0 0 14 14" fill="none" xmlns="http://www.w3.org/2000/svg">
<path d="M10.2413 1.99135L11.366 0.866012C11.6005 0.631561 11.9184 0.499847 12.25 0.499847C12.5816 0.499847 12.8995 0.631561 13.134 0.866012C13.3685 1.10046 13.5002 1.41845 13.5002 1.75001C13.5002 2.08158 13.3685 2.39956 13.134 2.63401L6.05467 9.71335C5.70222 10.0656 5.26758 10.3245 4.79 10.4667L3 11L3.53333 9.21001C3.67552 8.73244 3.93442 8.2978 4.28667 7.94535L10.2413 1.99135ZM10.2413 1.99135L12 3.75001M11 8.33335V11.5C11 11.8978 10.842 12.2794 10.5607 12.5607C10.2794 12.842 9.89782 13 9.5 13H2.5C2.10218 13 1.72064 12.842 1.43934 12.5607C1.15804 12.2794 1 11.8978 1 11.5V4.50001C1 4.10219 1.15804 3.72066 1.43934 3.43935C1.72064 3.15805 2.10218 3.00001 2.5 3.00001H5.66667" stroke="currentColor" stroke-linecap="round" stroke-linejoin="round"/>
</svg>
