<svg width="6" height="10" viewBox="0 0 6 10" fill="none" xmlns="http://www.w3.org/2000/svg">
<path fill-rule="evenodd" clip-rule="evenodd" d="M5.49656 5.30917C5.57849 5.22714 5.62451 5.11594 5.62451 5C5.62451 4.88407 5.57849 4.77287 5.49656 4.69084L1.12156 0.315837C1.08151 0.272853 1.03321 0.238376 0.979544 0.214464C0.925878 0.190552 0.867945 0.177695 0.809201 0.176658C0.750458 0.175622 0.692109 0.186428 0.637632 0.208432C0.583156 0.230435 0.533669 0.263186 0.492125 0.304731C0.450581 0.346275 0.417829 0.395761 0.395825 0.450238C0.373821 0.504714 0.363016 0.563065 0.364052 0.621808C0.365088 0.680551 0.377946 0.738484 0.401858 0.79215C0.42577 0.845817 0.460246 0.894117 0.50323 0.93417L4.56906 5L0.50323 9.06584C0.460246 9.10589 0.42577 9.15419 0.401858 9.20786C0.377946 9.26152 0.365088 9.31946 0.364052 9.3782C0.363016 9.43694 0.373821 9.49529 0.395825 9.54977C0.417829 9.60424 0.450581 9.65373 0.492125 9.69528C0.533669 9.73682 0.583156 9.76957 0.637632 9.79157C0.692109 9.81358 0.750458 9.82438 0.809201 9.82335C0.867945 9.82231 0.925878 9.80945 0.979544 9.78554C1.03321 9.76163 1.08151 9.72715 1.12156 9.68417L5.49656 5.30917Z" fill="#407BFF"/>
</svg>
