<svg aria-hidden="true" style="position: absolute; width: 0; height: 0; overflow: hidden;" version="1.1" xmlns="http://www.w3.org/2000/svg" xmlns:xlink="http://www.w3.org/1999/xlink">
<defs>
<symbol id="icon-outline" viewBox="0 0 24 24">
<path fill="none" stroke="#fff" style="stroke: var(--color1, #fff)" stroke-linejoin="round" stroke-linecap="round" stroke-miterlimit="4" stroke-width="2" d="M12 9v6M15 12h-6M21 12c0 1.182-0.233 2.352-0.685 3.444s-1.115 2.084-1.951 2.92c-0.836 0.836-1.828 1.499-2.92 1.951s-2.262 0.685-3.444 0.685-2.352-0.233-3.444-0.685c-1.092-0.452-2.084-1.115-2.92-1.951s-1.499-1.828-1.951-2.92c-0.452-1.092-0.685-2.262-0.685-3.444 0-2.387 0.948-4.676 2.636-6.364s3.977-2.636 6.364-2.636c2.387 0 4.676 0.948 6.364 2.636s2.636 3.977 2.636 6.364z"></path>
</symbol>
</defs>
</svg>
